PathFileType	4	(X/Y/Z)	 s03c0103.trc
DataRate	CameraRate	NumFrames	NumMarkers	Units	OrigDataRate	OrigDataStartFrame	OrigNumFrames
200	200	4	50	mm	200	1	2000
Frame#	Time	racr			lacr			c7			jug			rlel			rdr			llel			ldr			s2			lic			ric			lasi			rasi			rpsi			lpsi			rgt			lgt			rth1			rth2			rth3			rth4			rlfc			rmfc			rsh1			rsh2			rsh3			rsh4			rlmal			rcal			rtoe			rmt5			rmt1			lth1			lth2			lth4			lth3			llfc			lmfc			lsh1			lsh2			lsh3			lsh4			llmal			lcal			ltoe			lmt1			lmt5			SBIKE			LBIKE			RBIKE			
		X1	Y1	Z1	X2	Y2	Z2	X3	Y3	Z3	X4	Y4	Z4	X5	Y5	Z5	X6	Y6	Z6	X7	Y7	Z7	X8	Y8	Z8	X9	Y9	Z9	X10	Y10	Z10	X11	Y11	Z11	X12	Y12	Z12	X13	Y13	Z13	X14	Y14	Z14	X15	Y15	Z15	X16	Y16	Z16	X17	Y17	Z17	X18	Y18	Z18	X19	Y19	Z19	X20	Y20	Z20	X21	Y21	Z21	X22	Y22	Z22	X23	Y23	Z23	X24	Y24	Z24	X25	Y25	Z25	X26	Y26	Z26	X27	Y27	Z27	X28	Y28	Z28	X29	Y29	Z29	X30	Y30	Z30	X31	Y31	Z31	X32	Y32	Z32	X33	Y33	Z33	X34	Y34	Z34	X35	Y35	Z35	X36	Y36	Z36	X37	Y37	Z37	X38	Y38	Z38	X39	Y39	Z39	X40	Y40	Z40	X41	Y41	Z41	X42	Y42	Z42	X43	Y43	Z43	X44	Y44	Z44	X45	Y45	Z45	X46	Y46	Z46	X47	Y47	Z47	X48	Y48	Z48	X49	Y49	Z49	X50	Y50	Z50	
1	0.0050	470.733028	1398.727828	-51.698509	479.719559	1417.173589	-376.659640	409.081995	1487.609062	-213.741491	441.183612	1321.639739	-214.833156	525.702216	1135.386533	24.213583	746.886152	946.672589	-25.934999	562.410024	1160.509618	-437.997831	802.266390	996.459933	-269.265117	-112.032954	1210.938134	-239.318017	82.504966	1207.490644	-409.610048	59.156611	1230.098237	-47.270963	89.077730	1131.682089	-380.398732	68.803675	1168.843748	-88.096170	-79.781119	1258.795970	-195.166437	-70.067146	1255.506560	-276.213637	-11.297595	1154.336183	-31.193875	5.847725	1102.892406	-433.676483	108.457140	1073.909237	-1.325558	197.282846	1075.733295	4.177952	273.547151	1035.960988	8.615598	207.123541	1108.252742	-10.198980	397.718925	976.365387	-5.886300	414.084312	966.705923	-133.273185	329.876782	823.770183	0.741605	309.517844	740.289967	-21.927781	246.428155	678.313842	-32.681513	334.926085	730.348005	-48.460562	178.520527	565.948423	-65.978744	111.313723	522.273919	-110.426619	420.805767	518.711241	-112.063915	302.410273	500.299799	-42.739076	328.058612	516.479891	-155.957875	70.719423	955.765460	-458.403547	127.692336	890.260508	-462.146562	160.354862	906.699989	-457.474736	145.861060	802.550527	-451.343114	219.466723	695.828175	-435.622845	229.745603	685.774824	-313.074090	144.124150	539.229629	-455.219127	140.872279	457.144311	-437.127824	91.756150	379.057013	-425.650631	170.999263	448.897189	-412.904199	46.485111	260.275892	-401.460810	-18.862259	215.409598	-351.518769	289.214703	193.240121	-357.173487	197.467946	195.416492	-313.382630	167.867312	175.206267	-427.279238	-215.153427	945.230176	-230.305227	-5.572339	83.412398	-434.409513	-11.281924	80.915906	-34.324393	
2	0.0100	470.744822	1398.701113	-51.694606	479.713534	1417.136661	-376.650964	409.082679	1487.556891	-213.724624	441.144244	1321.620113	-214.779861	525.700304	1135.379527	24.194435	746.873304	946.647832	-25.968127	562.400783	1160.495955	-438.012052	802.161975	996.492894	-269.096457	-111.999555	1210.952469	-239.317694	82.518638	1207.512324	-409.648906	59.157525	1230.053386	-47.278493	89.077730	1131.682089	-380.398732	68.871822	1168.846553	-88.213534	-79.739793	1258.780003	-195.204761	-70.043497	1255.519537	-276.197804	-11.297378	1154.339534	-31.217565	5.846881	1102.883621	-433.692472	108.457221	1073.903555	-1.317823	197.278279	1075.737896	4.182630	273.536006	1035.964826	8.595034	207.148409	1108.248841	-10.215866	397.741317	976.350055	-5.886472	414.088084	966.704721	-133.265208	329.888834	823.777004	0.729567	309.530427	740.321202	-21.923790	246.453861	678.312356	-32.685816	334.951678	730.353798	-48.476920	178.522868	565.970811	-65.991477	111.321031	522.293030	-110.437500	420.805143	518.707905	-112.074018	302.398387	500.318324	-42.755799	328.085314	516.520143	-155.988218	70.723317	955.766814	-458.410961	127.694706	890.248988	-462.163671	160.408460	906.337010	-456.648729	145.853018	802.545946	-451.355707	219.470238	695.844623	-435.645434	229.776975	685.772857	-313.084487	144.107204	539.242559	-455.236929	140.871413	457.146326	-437.131107	91.756330	379.062122	-425.631264	170.994057	448.908363	-412.909551	46.479891	260.282928	-401.464580	-18.863241	215.418604	-351.517339	289.190866	193.264456	-357.156153	197.469014	195.417997	-313.381415	167.874920	175.210519	-427.273880	-215.155378	945.227421	-230.309132	-5.555174	83.372505	-434.464709	-11.264621	80.910557	-34.328954	
3	0.0150	470.750783	1398.686549	-51.700008	479.702583	1417.122874	-376.638186	409.113187	1487.541149	-213.735479	441.124433	1321.617668	-214.756227	525.698881	1135.378523	24.183561	746.883738	946.657625	-25.961665	562.386659	1160.504147	-438.006943	802.150280	996.509745	-269.156860	-111.999555	1210.952469	-239.317694	82.491105	1207.507954	-409.640279	59.158053	1230.056473	-47.268040	89.066684	1131.696579	-380.403557	68.869684	1168.862415	-88.175977	-79.733580	1258.791969	-195.210066	-70.030866	1255.518074	-276.207633	-11.288912	1154.340852	-31.207849	5.858114	1102.882146	-433.682421	108.456774	1073.897302	-1.302090	197.284609	1075.730826	4.178716	273.543865	1035.967053	8.604949	207.149358	1108.264441	-10.216739	397.750572	976.364017	-5.885407	414.088084	966.704721	-133.265208	329.898949	823.796112	0.731905	309.543292	740.349207	-21.930337	246.451932	678.318285	-32.680524	334.949934	730.368962	-48.448552	178.529038	565.986443	-65.989847	111.316689	522.297151	-110.425046	420.816197	518.704937	-112.069628	302.415174	500.321159	-42.754918	328.100125	516.515991	-155.972320	70.712432	955.764258	-458.415173	127.692866	890.243923	-462.182905	160.418270	906.343913	-456.663008	145.855678	802.549475	-451.363007	219.454939	695.848857	-435.661371	229.774640	685.752618	-313.093112	144.101157	539.229670	-455.232050	140.865165	457.157742	-437.133434	91.754203	379.064994	-425.625452	170.971324	448.903780	-412.903134	46.479688	260.290363	-401.455256	-18.867104	215.415960	-351.521835	289.211735	193.253499	-357.162114	197.469014	195.417997	-313.381415	167.874974	175.210474	-427.273756	-215.148434	945.234971	-230.306639	-5.547732	83.372122	-434.453821	-11.270966	80.905834	-34.320374	
4	0.0200	470.743395	1398.673992	-51.694061	480.051426	1416.541574	-374.675878	409.108031	1487.525829	-213.728703	441.124177	1321.632404	-214.762253	525.702495	1135.377921	24.180081	746.885741	946.620411	-25.881098	562.374293	1160.496353	-438.025865	801.580839	996.497649	-268.834507	-111.983823	1210.943354	-239.319528	81.856816	1208.008977	-410.633059	59.466760	1230.008652	-47.245494	89.437766	1131.042386	-379.409450	68.868716	1168.857540	-88.174693	-79.691205	1258.617564	-194.954676	-70.038182	1255.964128	-275.395521	-11.346067	1154.228953	-31.205544	5.637231	1102.935680	-433.970615	108.458787	1073.849520	-1.296826	197.290735	1075.746191	4.182729	273.710118	1035.937921	8.742319	206.340746	1108.672442	-10.948305	397.754700	976.373172	-5.887817	414.112213	966.713849	-133.256682	329.895584	823.795857	0.730145	309.536738	740.351372	-21.924109	246.463039	678.331413	-32.668618	336.321873	731.290084	-48.151939	178.466305	565.996829	-65.873407	111.336244	522.306366	-110.430079	420.824844	518.697478	-112.075190	302.737609	500.204917	-42.470071	328.099049	516.517716	-155.975725	70.698055	955.744452	-458.472589	128.185296	889.399257	-460.480367	160.852143	905.819589	-455.631679	145.854058	802.547629	-451.365666	220.904474	695.084179	-434.142805	229.778069	685.784053	-313.094736	144.692786	538.378022	-453.779675	140.395009	454.253266	-433.487210	91.738676	379.071019	-425.635618	171.033445	447.505991	-410.464043	46.287376	260.394616	-401.876224	-18.859201	215.404049	-351.519544	289.194196	193.257372	-357.160838	197.454371	195.418044	-313.352609	168.528352	173.563703	-425.088067	-215.216040	945.260311	-230.744172	-5.552205	83.387147	-434.462202	-11.264397	80.905892	-34.333473	
